# xmcd CD database file generated by OrangeCD 6.0
#
# Track frame offsets:
#	150
#	78588
#	102275
#	147486
#	163070
#	226286
#	262241
#	286225
#	306987
#
# Disc length: 4413 seconds
#
# Revision: 2
# Processed by: cddbd v1.5.2PL0 Copyright (c) Steve Scherf et al.
# Submitted via: OrangeCD 6.0
#
DISCID=82113b09
DTITLE=Various Artist - Time in Jazz - della Musica e dei Luoghi
DYEAR=2011
DGENRE=Jazz
TTITLE0=Italian Trumpet Summit  - Joy Spring
TTITLE1=Jeanne Lee and Alain Jean-Marie  - There Will Never Be Another You
TTITLE2=Antonello Salis and Gianluca Petrella  - Berchidda Suite
TTITLE3=Kristen Nogues and Mauro Negri  - Berceuse
TTITLE4=Paolo Fresu et al.  - My Man's Gone Now
TTITLE5=Peter Waters  - The Wedding
TTITLE6=Coro Su Concordu 'e su Rosariu di Santulussurgiu and Dhafer Youssef  - S'
TTITLE6=istudiantina
TTITLE7=Gaslini-De Vito-Orchestra Jazz della Sardegna  - La caccia
TTITLE8=Paolo Fresu [feat. Elena Ledda and David Linx]  - Ninna nanna pitzinnu
EXTD=
EXTT0=
EXTT1=
EXTT2=
EXTT3=
EXTT4=
EXTT5=
EXTT6=
EXTT7=
EXTT8=
PLAYORDER=
